SoccerLeague.ufo
<glyph name="exclam" format="2">
  <advance width="207"/>
  <unicode hex="0021"/>
  <outline>
    <contour>
      <point x="178" y="154" type="line"/>
      <point x="178" y="0" type="line"/>
      <point x="24" y="0" type="line"/>
      <point x="24" y="154" type="line"/>
    </contour>
    <contour>
      <point x="178" y="691" type="line"/>
      <point x="178" y="191" type="line"/>
      <point x="24" y="191" type="line"/>
      <point x="24" y="691" type="line"/>
    </contour>
  </outline>
</glyph>
<glyph name="quotesingle" format="2">
  <advance width="191"/>
  <unicode hex="0027"/>
  <outline>
    <contour>
      <point x="173" y="690" type="line"/>
      <point x="173" y="537" type="line"/>
      <point x="100" y="441" type="line"/>
      <point x="62" y="441" type="line"/>
      <point x="62" y="537" type="line"/>
      <point x="19" y="537" type="line"/>
      <point x="19" y="690" type="line"/>
    </contour>
  </outline>
</glyph>
<glyph name="comma" format="2">
  <advance width="191"/>
  <unicode hex="002C"/>
  <outline>
    <contour>
      <point x="174" y="153" type="line"/>
      <point x="174" y="0" type="line"/>
      <point x="101" y="-96" type="line"/>
      <point x="63" y="-96" type="line"/>
      <point x="63" y="0" type="line"/>
      <point x="20" y="0" type="line"/>
      <point x="20" y="153" type="line"/>
    </contour>
  </outline>
</glyph>
<glyph name="period" format="2">
  <advance width="189"/>
  <unicode hex="002E"/>
  <outline>
    <contour>
      <point x="172" y="154" type="line"/>
      <point x="172" y="0" type="line"/>
      <point x="19" y="0" type="line"/>
      <point x="19" y="154" type="line"/>
    </contour>
  </outline>
</glyph>
<glyph name="one" format="2">
  <advance width="345"/>
  <unicode hex="0031"/>
  <outline>
    <contour>
      <point x="330" y="154" type="line"/>
      <point x="330" y="0" type="line"/>
      <point x="22" y="0" type="line"/>
      <point x="22" y="154" type="line"/>
      <point x="99" y="154" type="line"/>
      <point x="99" y="538" type="line"/>
      <point x="22" y="538" type="line"/>
      <point x="22" y="692" type="line"/>
      <point x="253" y="692" type="line"/>
      <point x="253" y="154" type="line"/>
    </contour>
  </outline>
</glyph>
<glyph name="two" format="2">
  <advance width="502"/>
  <unicode hex="0032"/>
  <outline>
    <contour>
      <point x="478" y="0" type="line"/>
      <point x="21" y="0" type="line"/>
      <point x="21" y="346" type="line"/>
      <point x="98" y="423" type="line"/>
      <point x="325" y="423" type="line"/>
      <point x="325" y="538" type="line"/>
      <point x="175" y="538" type="line"/>
      <point x="175" y="461" type="line"/>
      <point x="21" y="461" type="line"/>
      <point x="21" y="615" type="line"/>
      <point x="98" y="691" type="line"/>
      <point x="401" y="691" type="line"/>
      <point x="478" y="615" type="line"/>
      <point x="478" y="346" type="line"/>
      <point x="401" y="269" type="line"/>
      <point x="175" y="269" type="line"/>
      <point x="175" y="154" type="line"/>
      <point x="325" y="154" type="line"/>
      <point x="325" y="230" type="line"/>
      <point x="478" y="230" type="line"/>
    </contour>
  </outline>
</glyph>
<glyph name="three" format="2">
  <advance width="491"/>
  <unicode hex="0033"/>
  <outline>
    <contour>
      <point x="392" y="692" type="line"/>
      <point x="468" y="615" type="line"/>
      <point x="468" y="384" type="line"/>
      <point x="430" y="346" type="line"/>
      <point x="468" y="308" type="line"/>
      <point x="468" y="77" type="line"/>
      <point x="392" y="0" type="line"/>
      <point x="97" y="0" type="line"/>
      <point x="20" y="77" type="line"/>
      <point x="20" y="231" type="line"/>
      <point x="174" y="231" type="line"/>
      <point x="174" y="154" type="line"/>
      <point x="315" y="154" type="line"/>
      <point x="315" y="269" type="line"/>
      <point x="160" y="269" type="line"/>
      <point x="160" y="423" type="line"/>
      <point x="315" y="423" type="line"/>
      <point x="315" y="538" type="line"/>
      <point x="174" y="538" type="line"/>
      <point x="174" y="461" type="line"/>
      <point x="20" y="461" type="line"/>
      <point x="20" y="615" type="line"/>
      <point x="97" y="692" type="line"/>
    </contour>
  </outline>
</glyph>
<glyph name="four" format="2">
  <advance width="471"/>
  <unicode hex="0034"/>
  <outline>
    <contour>
      <point x="449" y="154" type="line"/>
      <point x="449" y="0" type="line"/>
      <point x="218" y="0" type="line"/>
      <point x="218" y="154" type="line"/>
      <point x="257" y="154" type="line"/>
      <point x="257" y="192" type="line"/>
      <point x="21" y="192" type="line"/>
      <point x="21" y="361" type="line"/>
      <point x="248" y="691" type="line"/>
      <point x="410" y="691" type="line"/>
      <point x="410" y="346" type="line"/>
      <point x="449" y="346" type="line"/>
      <point x="449" y="192" type="line"/>
      <point x="410" y="192" type="line"/>
      <point x="410" y="154" type="line"/>
    </contour>
    <contour>
      <point x="257" y="346" type="line"/>
      <point x="257" y="448" type="line"/>
      <point x="194" y="346" type="line"/>
    </contour>
  </outline>
</glyph>
<glyph name="five" format="2">
  <advance width="498"/>
  <unicode hex="0035"/>
  <outline>
    <contour>
      <point x="475" y="77" type="line"/>
      <point x="399" y="0" type="line"/>
      <point x="100" y="0" type="line"/>
      <point x="23" y="77" type="line"/>
      <point x="23" y="231" type="line"/>
      <point x="177" y="231" type="line"/>
      <point x="177" y="154" type="line"/>
      <point x="322" y="154" type="line"/>
      <point x="322" y="269" type="line"/>
      <point x="23" y="269" type="line"/>
      <point x="23" y="692" type="line"/>
      <point x="475" y="692" type="line"/>
      <point x="475" y="461" type="line"/>
      <point x="322" y="461" type="line"/>
      <point x="322" y="538" type="line"/>
      <point x="177" y="538" type="line"/>
      <point x="177" y="423" type="line"/>
      <point x="399" y="423" type="line"/>
      <point x="475" y="346" type="line"/>
    </contour>
  </outline>
</glyph>
<glyph name="six" format="2">
  <advance width="501"/>
  <unicode hex="0036"/>
  <outline>
    <contour>
      <point x="176" y="269" type="line"/>
      <point x="176" y="154" type="line"/>
      <point x="325" y="154" type="line"/>
      <point x="325" y="269" type="line"/>
    </contour>
    <contour>
      <point x="479" y="77" type="line"/>
      <point x="402" y="0" type="line"/>
      <point x="99" y="0" type="line"/>
      <point x="22" y="77" type="line"/>
      <point x="22" y="615" type="line"/>
      <point x="99" y="692" type="line"/>
      <point x="402" y="692" type="line"/>
      <point x="479" y="615" type="line"/>
      <point x="479" y="461" type="line"/>
      <point x="325" y="461" type="line"/>
      <point x="325" y="538" type="line"/>
      <point x="176" y="538" type="line"/>
      <point x="176" y="423" type="line"/>
      <point x="402" y="423" type="line"/>
      <point x="479" y="346" type="line"/>
    </contour>
  </outline>
</glyph>
<glyph name="seven" format="2">
  <advance width="471"/>
  <unicode hex="0037"/>
  <outline>
    <contour>
      <point x="448" y="691" type="line"/>
      <point x="448" y="538" type="line"/>
      <point x="448" y="537"/>
      <point x="430" y="483"/>
      <point x="402" y="403"/>
      <point x="370" y="307"/>
      <point x="340" y="223"/>
      <point x="319" y="161"/>
      <point x="317" y="154" type="qcurve"/>
      <point x="354" y="154" type="line"/>
      <point x="354" y="0" type="line"/>
      <point x="113" y="0" type="line"/>
      <point x="113" y="154" type="line"/>
      <point x="154" y="154" type="line"/>
      <point x="278" y="538" type="line"/>
      <point x="173" y="538" type="line"/>
      <point x="173" y="461" type="line"/>
      <point x="20" y="461" type="line"/>
      <point x="20" y="691" type="line"/>
    </contour>
  </outline>
</glyph>
<glyph name="eight" format="2">
  <advance width="485"/>
  <unicode hex="0038"/>
  <outline>
    <contour>
      <point x="464" y="77" type="line"/>
      <point x="387" y="0" type="line"/>
      <point x="97" y="0" type="line"/>
      <point x="20" y="77" type="line"/>
      <point x="20" y="307" type="line"/>
      <point x="58" y="346" type="line"/>
      <point x="20" y="384" type="line"/>
      <point x="20" y="615" type="line"/>
      <point x="97" y="691" type="line"/>
      <point x="387" y="691" type="line"/>
      <point x="464" y="615" type="line"/>
      <point x="464" y="384" type="line"/>
      <point x="426" y="346" type="line"/>
      <point x="464" y="307" type="line"/>
    </contour>
    <contour>
      <point x="311" y="154" type="line"/>
      <point x="311" y="269" type="line"/>
      <point x="174" y="269" type="line"/>
      <point x="174" y="154" type="line"/>
    </contour>
    <contour>
      <point x="311" y="423" type="line"/>
      <point x="311" y="538" type="line"/>
      <point x="174" y="538" type="line"/>
      <point x="174" y="423" type="line"/>
    </contour>
  </outline>
</glyph>
<glyph name="nine" format="2">
  <advance width="496"/>
  <unicode hex="0039"/>
  <outline>
    <contour>
      <point x="325" y="423" type="line"/>
      <point x="325" y="538" type="line"/>
      <point x="176" y="538" type="line"/>
      <point x="176" y="423" type="line"/>
    </contour>
    <contour>
      <point x="22" y="615" type="line"/>
      <point x="99" y="692" type="line"/>
      <point x="402" y="692" type="line"/>
      <point x="479" y="615" type="line"/>
      <point x="479" y="77" type="line"/>
      <point x="402" y="0" type="line"/>
      <point x="99" y="0" type="line"/>
      <point x="22" y="77" type="line"/>
      <point x="22" y="231" type="line"/>
      <point x="176" y="231" type="line"/>
      <point x="176" y="154" type="line"/>
      <point x="325" y="154" type="line"/>
      <point x="325" y="269" type="line"/>
      <point x="99" y="269" type="line"/>
      <point x="22" y="346" type="line"/>
    </contour>
  </outline>
</glyph>
<glyph name="question" format="2">
  <advance width="487"/>
  <unicode hex="003F"/>
  <outline>
    <contour>
      <point x="472" y="346" type="line"/>
      <point x="395" y="269" type="line"/>
      <point x="311" y="269" type="line"/>
      <point x="311" y="192" type="line"/>
      <point x="158" y="192" type="line"/>
      <point x="158" y="346" type="line"/>
      <point x="235" y="423" type="line"/>
      <point x="319" y="423" type="line"/>
      <point x="319" y="538" type="line"/>
      <point x="169" y="538" type="line"/>
      <point x="169" y="461" type="line"/>
      <point x="16" y="461" type="line"/>
      <point x="16" y="615" type="line"/>
      <point x="93" y="692" type="line"/>
      <point x="395" y="692" type="line"/>
      <point x="472" y="615" type="line"/>
    </contour>
    <contour>
      <point x="311" y="154" type="line"/>
      <point x="311" y="0" type="line"/>
      <point x="158" y="0" type="line"/>
      <point x="158" y="154" type="line"/>
    </contour>
  </outline>
</glyph>
<glyph name="A" format="2">
  <advance width="568"/>
  <unicode hex="0041"/>
  <outline>
    <contour>
      <point x="247" y="346" type="line"/>
      <point x="318" y="346" type="line"/>
      <point x="282" y="512" type="line"/>
    </contour>
    <contour>
      <point x="551" y="153" type="line"/>
      <point x="551" y="0" type="line"/>
      <point x="321" y="0" type="line"/>
      <point x="321" y="153" type="line"/>
      <point x="359" y="153" type="line"/>
      <point x="351" y="192" type="line"/>
      <point x="214" y="192" type="line"/>
      <point x="206" y="153" type="line"/>
      <point x="244" y="153" type="line"/>
      <point x="244" y="0" type="line"/>
      <point x="14" y="0" type="line"/>
      <point x="14" y="153" type="line"/>
      <point x="52" y="153" type="line"/>
      <point x="134" y="538" type="line"/>
      <point x="90" y="538" type="line"/>
      <point x="90" y="691" type="line"/>
      <point x="474" y="691" type="line"/>
      <point x="474" y="538" type="line"/>
      <point x="431" y="538" type="line"/>
      <point x="513" y="153" type="line"/>
    </contour>
  </outline>
</glyph>
<glyph name="B" format="2">
  <advance width="520"/>
  <unicode hex="0042"/>
  <outline>
    <contour>
      <point x="496" y="77" type="line"/>
      <point x="419" y="0" type="line"/>
      <point x="22" y="0" type="line"/>
      <point x="22" y="154" type="line"/>
      <point x="60" y="154" type="line"/>
      <point x="60" y="538" type="line"/>
      <point x="22" y="538" type="line"/>
      <point x="22" y="691" type="line"/>
      <point x="419" y="691" type="line"/>
      <point x="496" y="614" type="line"/>
      <point x="496" y="384" type="line"/>
      <point x="457" y="346" type="line"/>
      <point x="496" y="307" type="line"/>
    </contour>
    <contour>
      <point x="342" y="154" type="line"/>
      <point x="342" y="269" type="line"/>
      <point x="214" y="269" type="line"/>
      <point x="214" y="154" type="line"/>
    </contour>
    <contour>
      <point x="342" y="422" type="line"/>
      <point x="342" y="538" type="line"/>
      <point x="214" y="538" type="line"/>
      <point x="214" y="422" type="line"/>
    </contour>
  </outline>
</glyph>
<glyph name="C" format="2">
  <advance width="517"/>
  <unicode hex="0043"/>
  <outline>
    <contour>
      <point x="494" y="77" type="line"/>
      <point x="417" y="0" type="line"/>
      <point x="101" y="0" type="line"/>
      <point x="24" y="77" type="line"/>
      <point x="24" y="614" type="line"/>
      <point x="101" y="691" type="line"/>
      <point x="417" y="691" type="line"/>
      <point x="494" y="614" type="line"/>
      <point x="494" y="461" type="line"/>
      <point x="340" y="461" type="line"/>
      <point x="340" y="538" type="line"/>
      <point x="178" y="538" type="line"/>
      <point x="178" y="153" type="line"/>
      <point x="340" y="153" type="line"/>
      <point x="340" y="230" type="line"/>
      <point x="494" y="230" type="line"/>
    </contour>
  </outline>
</glyph>
<glyph name="D" format="2">
  <advance width="535"/>
  <unicode hex="0044"/>
  <outline>
    <contour>
      <point x="511" y="77" type="line"/>
      <point x="434" y="0" type="line"/>
      <point x="25" y="0" type="line"/>
      <point x="25" y="153" type="line"/>
      <point x="63" y="153" type="line"/>
      <point x="63" y="538" type="line"/>
      <point x="25" y="538" type="line"/>
      <point x="25" y="691" type="line"/>
      <point x="434" y="691" type="line"/>
      <point x="511" y="614" type="line"/>
    </contour>
    <contour>
      <point x="357" y="153" type="line"/>
      <point x="357" y="538" type="line"/>
      <point x="217" y="538" type="line"/>
      <point x="217" y="153" type="line"/>
    </contour>
  </outline>
</glyph>
<glyph name="E" format="2">
  <advance width="516"/>
  <unicode hex="0045"/>
  <outline>
    <contour>
      <point x="490" y="0" type="line"/>
      <point x="24" y="0" type="line"/>
      <point x="24" y="154" type="line"/>
      <point x="63" y="154" type="line"/>
      <point x="63" y="538" type="line"/>
      <point x="24" y="538" type="line"/>
      <point x="24" y="692" type="line"/>
      <point x="490" y="692" type="line"/>
      <point x="490" y="461" type="line"/>
      <point x="336" y="461" type="line"/>
      <point x="336" y="538" type="line"/>
      <point x="216" y="538" type="line"/>
      <point x="216" y="423" type="line"/>
      <point x="365" y="423" type="line"/>
      <point x="365" y="269" type="line"/>
      <point x="216" y="269" type="line"/>
      <point x="216" y="154" type="line"/>
      <point x="336" y="154" type="line"/>
      <point x="336" y="231" type="line"/>
      <point x="490" y="231" type="line"/>
    </contour>
  </outline>
</glyph>
<glyph name="F" format="2">
  <advance width="492"/>
  <unicode hex="0046"/>
  <outline>
    <contour>
      <point x="470" y="461" type="line"/>
      <point x="317" y="461" type="line"/>
      <point x="317" y="538" type="line"/>
      <point x="216" y="538" type="line"/>
      <point x="216" y="423" type="line"/>
      <point x="369" y="423" type="line"/>
      <point x="369" y="269" type="line"/>
      <point x="216" y="269" type="line"/>
      <point x="216" y="154" type="line"/>
      <point x="254" y="154" type="line"/>
      <point x="254" y="0" type="line"/>
      <point x="23" y="0" type="line"/>
      <point x="23" y="154" type="line"/>
      <point x="62" y="154" type="line"/>
      <point x="62" y="538" type="line"/>
      <point x="23" y="538" type="line"/>
      <point x="23" y="692" type="line"/>
      <point x="470" y="692" type="line"/>
    </contour>
  </outline>
</glyph>
<glyph name="I" format="2">
  <advance width="284"/>
  <unicode hex="0049"/>
  <outline>
    <contour>
      <point x="258" y="154" type="line"/>
      <point x="258" y="0" type="line"/>
      <point x="28" y="0" type="line"/>
      <point x="28" y="154" type="line"/>
      <point x="66" y="154" type="line"/>
      <point x="66" y="538" type="line"/>
      <point x="28" y="538" type="line"/>
      <point x="28" y="692" type="line"/>
      <point x="258" y="692" type="line"/>
      <point x="258" y="538" type="line"/>
      <point x="220" y="538" type="line"/>
      <point x="220" y="154" type="line"/>
    </contour>
  </outline>
</glyph>
<glyph name="K" format="2">
  <advance width="562"/>
  <unicode hex="004B"/>
  <outline>
    <contour>
      <point x="498" y="538" type="line"/>
      <point x="337" y="346" type="line"/>
      <point x="498" y="154" type="line"/>
      <point x="533" y="154" type="line"/>
      <point x="533" y="0" type="line"/>
      <point x="302" y="0" type="line"/>
      <point x="302" y="154" type="line"/>
      <point x="334" y="154" type="line"/>
      <point x="310" y="183"/>
      <point x="262" y="240"/>
      <point x="237" y="269" type="qcurve"/>
      <point x="218" y="269" type="line"/>
      <point x="218" y="154" type="line"/>
      <point x="257" y="154" type="line"/>
      <point x="257" y="0" type="line"/>
      <point x="26" y="0" type="line"/>
      <point x="26" y="154" type="line"/>
      <point x="65" y="154" type="line"/>
      <point x="65" y="538" type="line"/>
      <point x="26" y="538" type="line"/>
      <point x="26" y="692" type="line"/>
      <point x="257" y="692" type="line"/>
      <point x="257" y="538" type="line"/>
      <point x="218" y="538" type="line"/>
      <point x="218" y="423" type="line"/>
      <point x="237" y="423" type="line"/>
      <point x="262" y="452"/>
      <point x="310" y="509"/>
      <point x="334" y="538" type="qcurve"/>
      <point x="302" y="538" type="line"/>
      <point x="302" y="692" type="line"/>
      <point x="533" y="692" type="line"/>
      <point x="533" y="538" type="line"/>
    </contour>
  </outline>
</glyph>
<glyph name="L" format="2">
  <advance width="485"/>
  <unicode hex="004C"/>
  <outline>
    <contour>
      <point x="462" y="230" type="line"/>
      <point x="462" y="0" type="line"/>
      <point x="26" y="0" type="line"/>
      <point x="26" y="153" type="line"/>
      <point x="64" y="153" type="line"/>
      <point x="64" y="538" type="line"/>
      <point x="26" y="538" type="line"/>
      <point x="26" y="691" type="line"/>
      <point x="256" y="691" type="line"/>
      <point x="256" y="538" type="line"/>
      <point x="218" y="538" type="line"/>
      <point x="218" y="153" type="line"/>
      <point x="308" y="153" type="line"/>
      <point x="308" y="230" type="line"/>
    </contour>
  </outline>
</glyph>
<glyph name="O" format="2">
  <advance width="498"/>
  <unicode hex="004F"/>
  <outline>
    <contour>
      <point x="475" y="77" type="line"/>
      <point x="398" y="0" type="line"/>
      <point x="100" y="0" type="line"/>
      <point x="24" y="77" type="line"/>
      <point x="24" y="614" type="line"/>
      <point x="100" y="691" type="line"/>
      <point x="398" y="691" type="line"/>
      <point x="475" y="614" type="line"/>
    </contour>
    <contour>
      <point x="321" y="153" type="line"/>
      <point x="321" y="538" type="line"/>
      <point x="177" y="538" type="line"/>
      <point x="177" y="153" type="line"/>
    </contour>
  </outline>
</glyph>
<glyph name="S" format="2">
  <advance width="497"/>
  <unicode hex="0053"/>
  <outline>
    <contour>
      <point x="474" y="77" type="line"/>
      <point x="397" y="0" type="line"/>
      <point x="99" y="0" type="line"/>
      <point x="22" y="77" type="line"/>
      <point x="22" y="231" type="line"/>
      <point x="176" y="231" type="line"/>
      <point x="176" y="154" type="line"/>
      <point x="320" y="154" type="line"/>
      <point x="320" y="269" type="line"/>
      <point x="99" y="269" type="line"/>
      <point x="22" y="346" type="line"/>
      <point x="22" y="615" type="line"/>
      <point x="99" y="692" type="line"/>
      <point x="397" y="692" type="line"/>
      <point x="474" y="615" type="line"/>
      <point x="474" y="461" type="line"/>
      <point x="320" y="461" type="line"/>
      <point x="320" y="538" type="line"/>
      <point x="176" y="538" type="line"/>
      <point x="176" y="423" type="line"/>
      <point x="397" y="423" type="line"/>
      <point x="474" y="346" type="line"/>
    </contour>
  </outline>
</glyph>
<glyph name="U" format="2">
  <advance width="564"/>
  <unicode hex="0055"/>
  <outline>
    <contour>
      <point x="541" y="692" type="line"/>
      <point x="541" y="538" type="line"/>
      <point x="503" y="538" type="line"/>
      <point x="503" y="77" type="line"/>
      <point x="426" y="0" type="line"/>
      <point x="140" y="0" type="line"/>
      <point x="63" y="77" type="line"/>
      <point x="63" y="538" type="line"/>
      <point x="25" y="538" type="line"/>
      <point x="25" y="692" type="line"/>
      <point x="255" y="692" type="line"/>
      <point x="255" y="538" type="line"/>
      <point x="217" y="538" type="line"/>
      <point x="217" y="154" type="line"/>
      <point x="349" y="154" type="line"/>
      <point x="349" y="538" type="line"/>
      <point x="311" y="538" type="line"/>
      <point x="311" y="692" type="line"/>
    </contour>
  </outline>
</glyph>
<glyph name="X" format="2">
  <advance width="536"/>
  <unicode hex="0058"/>
  <outline>
    <contour>
      <point x="58" y="538" type="line"/>
      <point x="20" y="538" type="line"/>
      <point x="20" y="692" type="line"/>
      <point x="246" y="692" type="line"/>
      <point x="246" y="538" type="line"/>
      <point x="218" y="538" type="line"/>
      <point x="271" y="448" type="line"/>
      <point x="318" y="538" type="line"/>
      <point x="289" y="538" type="line"/>
      <point x="289" y="692" type="line"/>
      <point x="516" y="692" type="line"/>
      <point x="516" y="538" type="line"/>
      <point x="485" y="538" type="line"/>
      <point x="360" y="343" type="line"/>
      <point x="482" y="154" type="line"/>
      <point x="516" y="154" type="line"/>
      <point x="516" y="0" type="line"/>
      <point x="288" y="0" type="line"/>
      <point x="288" y="154" type="line"/>
      <point x="316" y="154" type="line"/>
      <point x="269" y="233" type="line"/>
      <point x="220" y="154" type="line"/>
      <point x="247" y="154" type="line"/>
      <point x="247" y="0" type="line"/>
      <point x="20" y="0" type="line"/>
      <point x="20" y="154" type="line"/>
      <point x="53" y="154" type="line"/>
      <point x="181" y="342" type="line"/>
    </contour>
  </outline>
</glyph>
<glyph name="Y" format="2">
  <advance width="539"/>
  <unicode hex="0059"/>
  <outline>
    <contour>
      <point x="519" y="691" type="line"/>
      <point x="519" y="537" type="line"/>
      <point x="480" y="537" type="line"/>
      <point x="344" y="256" type="line"/>
      <point x="344" y="153" type="line"/>
      <point x="382" y="153" type="line"/>
      <point x="382" y="0" type="line"/>
      <point x="152" y="0" type="line"/>
      <point x="152" y="153" type="line"/>
      <point x="190" y="153" type="line"/>
      <point x="190" y="256" type="line"/>
      <point x="190" y="256"/>
      <point x="171" y="296"/>
      <point x="143" y="355"/>
      <point x="110" y="425"/>
      <point x="80" y="487"/>
      <point x="58" y="532"/>
      <point x="56" y="537" type="qcurve"/>
      <point x="18" y="537" type="line"/>
      <point x="18" y="691" type="line"/>
      <point x="248" y="691" type="line"/>
      <point x="248" y="537" type="line"/>
      <point x="210" y="537" type="line"/>
      <point x="267" y="396" type="line"/>
      <point x="327" y="537" type="line"/>
      <point x="288" y="537" type="line"/>
      <point x="288" y="691" type="line"/>
    </contour>
  </outline>
</glyph>
<glyph name="Z" format="2">
  <advance width="507"/>
  <unicode hex="005A"/>
  <outline>
    <contour>
      <point x="313" y="538" type="line"/>
      <point x="177" y="538" type="line"/>
      <point x="177" y="461" type="line"/>
      <point x="23" y="461" type="line"/>
      <point x="23" y="692" type="line"/>
      <point x="488" y="692" type="line"/>
      <point x="488" y="538" type="line"/>
      <point x="206" y="154" type="line"/>
      <point x="334" y="154" type="line"/>
      <point x="334" y="231" type="line"/>
      <point x="488" y="231" type="line"/>
      <point x="488" y="0" type="line"/>
      <point x="23" y="0" type="line"/>
      <point x="23" y="154" type="line"/>
    </contour>
  </outline>
</glyph>
<glyph name="g" format="2">
  <advance width="510"/>
  <unicode hex="0067"/>
  <outline>
    <contour>
      <point x="488" y="77" type="line"/>
      <point x="411" y="0" type="line"/>
      <point x="100" y="0" type="line"/>
      <point x="23" y="77" type="line"/>
      <point x="23" y="615" type="line"/>
      <point x="100" y="692" type="line"/>
      <point x="411" y="692" type="line"/>
      <point x="488" y="615" type="line"/>
      <point x="488" y="461" type="line"/>
      <point x="334" y="461" type="line"/>
      <point x="334" y="538" type="line"/>
      <point x="177" y="538" type="line"/>
      <point x="177" y="154" type="line"/>
      <point x="334" y="154" type="line"/>
      <point x="334" y="231" type="line"/>
      <point x="219" y="231" type="line"/>
      <point x="219" y="384" type="line"/>
      <point x="488" y="384" type="line"/>
    </contour>
  </outline>
</glyph>
<glyph name="h" format="2">
  <advance width="584"/>
  <unicode hex="0068"/>
  <outline>
    <contour>
      <point x="554" y="154" type="line"/>
      <point x="554" y="0" type="line"/>
      <point x="323" y="0" type="line"/>
      <point x="323" y="154" type="line"/>
      <point x="362" y="154" type="line"/>
      <point x="362" y="269" type="line"/>
      <point x="219" y="269" type="line"/>
      <point x="219" y="154" type="line"/>
      <point x="257" y="154" type="line"/>
      <point x="257" y="0" type="line"/>
      <point x="27" y="0" type="line"/>
      <point x="27" y="154" type="line"/>
      <point x="65" y="154" type="line"/>
      <point x="65" y="538" type="line"/>
      <point x="27" y="538" type="line"/>
      <point x="27" y="692" type="line"/>
      <point x="257" y="692" type="line"/>
      <point x="257" y="538" type="line"/>
      <point x="219" y="538" type="line"/>
      <point x="219" y="423" type="line"/>
      <point x="362" y="423" type="line"/>
      <point x="362" y="538" type="line"/>
      <point x="323" y="538" type="line"/>
      <point x="323" y="692" type="line"/>
      <point x="554" y="692" type="line"/>
      <point x="554" y="538" type="line"/>
      <point x="515" y="538" type="line"/>
      <point x="515" y="154" type="line"/>
    </contour>
  </outline>
</glyph>
<glyph name="j" format="2">
  <advance width="479"/>
  <unicode hex="006A"/>
  <outline>
    <contour>
      <point x="455" y="692" type="line"/>
      <point x="455" y="538" type="line"/>
      <point x="416" y="538" type="line"/>
      <point x="416" y="77" type="line"/>
      <point x="339" y="0" type="line"/>
      <point x="101" y="0" type="line"/>
      <point x="24" y="77" type="line"/>
      <point x="24" y="231" type="line"/>
      <point x="177" y="231" type="line"/>
      <point x="177" y="154" type="line"/>
      <point x="263" y="154" type="line"/>
      <point x="263" y="538" type="line"/>
      <point x="224" y="538" type="line"/>
      <point x="224" y="692" type="line"/>
    </contour>
  </outline>
</glyph>
<glyph name="m" format="2">
  <advance width="647"/>
  <unicode hex="006D"/>
  <outline>
    <contour>
      <point x="625" y="154" type="line"/>
      <point x="625" y="0" type="line"/>
      <point x="395" y="0" type="line"/>
      <point x="395" y="154" type="line"/>
      <point x="433" y="154" type="line"/>
      <point x="433" y="379" type="line"/>
      <point x="324" y="167" type="line"/>
      <point x="217" y="379" type="line"/>
      <point x="217" y="154" type="line"/>
      <point x="255" y="154" type="line"/>
      <point x="255" y="0" type="line"/>
      <point x="25" y="0" type="line"/>
      <point x="25" y="154" type="line"/>
      <point x="63" y="154" type="line"/>
      <point x="63" y="538" type="line"/>
      <point x="25" y="538" type="line"/>
      <point x="25" y="692" type="line"/>
      <point x="206" y="692" type="line"/>
      <point x="324" y="479" type="line"/>
      <point x="445" y="692" type="line"/>
      <point x="625" y="692" type="line"/>
      <point x="625" y="538" type="line"/>
      <point x="587" y="538" type="line"/>
      <point x="587" y="154" type="line"/>
    </contour>
  </outline>
</glyph>
<glyph name="n" format="2">
  <advance width="561"/>
  <unicode hex="006E"/>
  <outline>
    <contour>
      <point x="545" y="692" type="line"/>
      <point x="545" y="538" type="line"/>
      <point x="506" y="538" type="line"/>
      <point x="506" y="0" type="line"/>
      <point x="350" y="0" type="line"/>
      <point x="216" y="330" type="line"/>
      <point x="216" y="154" type="line"/>
      <point x="255" y="154" type="line"/>
      <point x="255" y="0" type="line"/>
      <point x="24" y="0" type="line"/>
      <point x="24" y="154" type="line"/>
      <point x="63" y="154" type="line"/>
      <point x="63" y="538" type="line"/>
      <point x="24" y="538" type="line"/>
      <point x="24" y="692" type="line"/>
      <point x="213" y="692" type="line"/>
      <point x="353" y="352" type="line"/>
      <point x="353" y="538" type="line"/>
      <point x="314" y="538" type="line"/>
      <point x="314" y="692" type="line"/>
    </contour>
  </outline>
</glyph>
<glyph name="q" format="2">
  <advance width="496"/>
  <unicode hex="0071"/>
  <outline>
    <contour>
      <point x="473" y="77" type="line"/>
      <point x="396" y="0" type="line"/>
      <point x="396" y="-38" type="line"/>
      <point x="239" y="-38" type="line"/>
      <point x="239" y="0" type="line"/>
      <point x="100" y="0" type="line"/>
      <point x="24" y="77" type="line"/>
      <point x="24" y="615" type="line"/>
      <point x="100" y="692" type="line"/>
      <point x="396" y="692" type="line"/>
      <point x="473" y="615" type="line"/>
    </contour>
    <contour>
      <point x="319" y="192" type="line"/>
      <point x="319" y="538" type="line"/>
      <point x="177" y="538" type="line"/>
      <point x="177" y="154" type="line"/>
      <point x="239" y="154" type="line"/>
      <point x="239" y="192" type="line"/>
    </contour>
  </outline>
</glyph>
<glyph name="r" format="2">
  <advance width="535"/>
  <unicode hex="0072"/>
  <outline>
    <contour>
      <point x="515" y="153" type="line"/>
      <point x="515" y="0" type="line"/>
      <point x="302" y="0" type="line"/>
      <point x="302" y="153" type="line"/>
      <point x="333" y="153" type="line"/>
      <point x="333" y="269" type="line"/>
      <point x="213" y="269" type="line"/>
      <point x="213" y="153" type="line"/>
      <point x="252" y="153" type="line"/>
      <point x="252" y="0" type="line"/>
      <point x="21" y="0" type="line"/>
      <point x="21" y="153" type="line"/>
      <point x="60" y="153" type="line"/>
      <point x="60" y="538" type="line"/>
      <point x="21" y="538" type="line"/>
      <point x="21" y="691" type="line"/>
      <point x="410" y="691" type="line"/>
      <point x="487" y="614" type="line"/>
      <point x="487" y="384" type="line"/>
      <point x="449" y="346" type="line"/>
      <point x="487" y="307" type="line"/>
      <point x="487" y="153" type="line"/>
    </contour>
    <contour>
      <point x="333" y="422" type="line"/>
      <point x="333" y="538" type="line"/>
      <point x="213" y="538" type="line"/>
      <point x="213" y="422" type="line"/>
    </contour>
  </outline>
</glyph>
<glyph name="t" format="2">
  <advance width="496"/>
  <unicode hex="0074"/>
  <outline>
    <contour>
      <point x="478" y="692" type="line"/>
      <point x="478" y="461" type="line"/>
      <point x="363" y="461" type="line"/>
      <point x="363" y="538" type="line"/>
      <point x="324" y="538" type="line"/>
      <point x="324" y="154" type="line"/>
      <point x="363" y="154" type="line"/>
      <point x="363" y="0" type="line"/>
      <point x="132" y="0" type="line"/>
      <point x="132" y="154" type="line"/>
      <point x="171" y="154" type="line"/>
      <point x="171" y="538" type="line"/>
      <point x="132" y="538" type="line"/>
      <point x="132" y="461" type="line"/>
      <point x="16" y="461" type="line"/>
      <point x="16" y="692" type="line"/>
    </contour>
  </outline>
</glyph>
<glyph name="v" format="2">
  <advance width="578"/>
  <unicode hex="0076"/>
  <outline>
    <contour>
      <point x="289" y="179" type="line"/>
      <point x="365" y="538" type="line"/>
      <point x="327" y="538" type="line"/>
      <point x="327" y="691" type="line"/>
      <point x="557" y="691" type="line"/>
      <point x="557" y="538" type="line"/>
      <point x="519" y="538" type="line"/>
      <point x="404" y="0" type="line"/>
      <point x="173" y="0" type="line"/>
      <point x="58" y="538" type="line"/>
      <point x="20" y="538" type="line"/>
      <point x="20" y="691" type="line"/>
      <point x="250" y="691" type="line"/>
      <point x="250" y="538" type="line"/>
      <point x="212" y="538" type="line"/>
    </contour>
  </outline>
</glyph>
<glyph name="w" format="2">
  <advance width="656"/>
  <unicode hex="0077"/>
  <outline>
    <contour>
      <point x="639" y="690" type="line"/>
      <point x="639" y="537" type="line"/>
      <point x="600" y="537" type="line"/>
      <point x="600" y="-1" type="line"/>
      <point x="447" y="-1" type="line"/>
      <point x="335" y="182" type="line"/>
      <point x="212" y="-1" type="line"/>
      <point x="59" y="-1" type="line"/>
      <point x="59" y="537" type="line"/>
      <point x="20" y="537" type="line"/>
      <point x="20" y="690" type="line"/>
      <point x="251" y="690" type="line"/>
      <point x="251" y="537" type="line"/>
      <point x="212" y="537" type="line"/>
      <point x="212" y="311" type="line"/>
      <point x="335" y="494" type="line"/>
      <point x="447" y="311" type="line"/>
      <point x="447" y="537" type="line"/>
      <point x="408" y="537" type="line"/>
      <point x="408" y="690" type="line"/>
    </contour>
  </outline>
</glyph>
<glyph name="z" format="2">
  <advance width="507"/>
  <unicode hex="007A"/>
  <outline>
    <contour>
      <point x="313" y="538" type="line"/>
      <point x="177" y="538" type="line"/>
      <point x="177" y="461" type="line"/>
      <point x="23" y="461" type="line"/>
      <point x="23" y="692" type="line"/>
      <point x="488" y="692" type="line"/>
      <point x="488" y="538" type="line"/>
      <point x="206" y="154" type="line"/>
      <point x="334" y="154" type="line"/>
      <point x="334" y="231" type="line"/>
      <point x="488" y="231" type="line"/>
      <point x="488" y="0" type="line"/>
      <point x="23" y="0" type="line"/>
      <point x="23" y="154" type="line"/>
    </contour>
  </outline>
</glyph>
